HIERARCHY
ROOT Hips
{
	OFFSET -0.179506 -22.333345 2.821913
	CHANNELS 6 Xposition Yposition Zposition Zrotation Yrotation Xrotation 
	JOINT LeftUpLeg
	{
		OFFSET 6.951974 -9.140623 -0.681533
		CHANNELS 3 Zrotation Yrotation Xrotation
		JOINT LeftLeg
		{
			OFFSET 3.427654 -37.519855 -0.449580
			CHANNELS 3 Zrotation Yrotation Xrotation
			JOINT LeftFoot
			{
				OFFSET -1.359570 -39.796059 -4.369333
				CHANNELS 3 Zrotation Yrotation Xrotation
				JOINT LeftToe
				{
					OFFSET 2.635814 -5.579078 11.928840
					CHANNELS 3 Zrotation Yrotation Xrotation
					End Site
					{
						OFFSET 0.000000 0.000000 0.000000
					}
				}
			}
		}
	}
	JOINT RightUpLeg
	{
		OFFSET -6.767048 -9.052170 -0.431982
		CHANNELS 3 Zrotation Yrotation Xrotation
		JOINT RightLeg
		{
			OFFSET -3.829005 -38.256897 -0.885003
			CHANNELS 3 Zrotation Yrotation Xrotation
			JOINT RightFoot
			{
				OFFSET 1.577377 -39.841461 -4.231180
				CHANNELS 3 Zrotation Yrotation Xrotation
				JOINT RightToe
				{
					OFFSET -2.537174 -4.814398 12.334795
					CHANNELS 3 Zrotation Yrotation Xrotation
					End Site
					{
						OFFSET 0.000000 0.000000 0.000000
					}
				}
			}
		}
	}
	JOINT Spine
	{
		OFFSET -0.253288 10.896323 -2.669631
		CHANNELS 3 Zrotation Yrotation Xrotation
		JOINT Spine1
		{
			OFFSET 0.548704 13.518043 0.109247
			CHANNELS 3 Zrotation Yrotation Xrotation
			JOINT Spine2
			{
				OFFSET 0.145701 5.292222 2.542457
				CHANNELS 3 Zrotation Yrotation Xrotation
				JOINT Neck
				{
					OFFSET -0.277840 21.387037 -4.285703
					CHANNELS 3 Zrotation Yrotation Xrotation
					JOINT Head
					{
						OFFSET 0.515184 6.496960 5.134897
						CHANNELS 3 Zrotation Yrotation Xrotation
						End Site
						{
							OFFSET 0.000000 0.000000 0.000000
						}
					}
				}
				JOINT LeftShoulder
				{
					OFFSET 7.884473 12.174932 -3.408961
					CHANNELS 3 Zrotation Yrotation Xrotation
					JOINT LeftArm
					{
						OFFSET 9.097692 3.046888 -0.886815
						CHANNELS 3 Zrotation Yrotation Xrotation
						JOINT LeftForeArm
						{
							OFFSET 25.961220 -1.277207 -2.745643
							CHANNELS 3 Zrotation Yrotation Xrotation
							JOINT LeftHand
							{
								OFFSET 24.923361 0.898606 -0.117091
								CHANNELS 3 Zrotation Yrotation Xrotation
								End Site
								{
									OFFSET 0.000000 0.000000 0.000000
								}
							}
						}
					}
				}
				JOINT RightShoulder
				{
					OFFSET -8.175920 11.883285 -3.861528
					CHANNELS 3 Zrotation Yrotation Xrotation
					JOINT RightArm
					{
						OFFSET -9.601238 3.255117 -0.914307
						CHANNELS 3 Zrotation Yrotation Xrotation
						JOINT RightForeArm
						{
							OFFSET -25.374195 -1.332924 -2.140099
							CHANNELS 3 Zrotation Yrotation Xrotation
							JOINT RightHand
							{
								OFFSET -25.529810 0.777228 -0.555919
								CHANNELS 3 Zrotation Yrotation Xrotation
								End Site
								{
									OFFSET 0.000000 0.000000 0.000000
								}
							}
						}
					}
				}
			}
		}
	}
}
MOTION
Frames: 10
Frame Time: 0.033333
4.181179 -50.135574 13.889956 -173.429537 -10.055954 1.703783 5.824616 -3.537192 -30.002427 -11.240623 11.275722 46.895393 -0.518453 5.823630 6.488211 nan nan nan -3.522050 -0.804658 -4.151099 1.629006 -2.769254 2.358745 12.903173 -1.412676 16.423208 nan nan nan 2.446400 3.656385 40.261465 -2.950533 -6.531227 3.573113 -1.131014 -1.213664 9.337309 -15.747851 2.577224 50.110212 9.205801 5.831987 0.986336 -14.891341 -9.959928 23.116704 -37.919513 21.249324 19.813387 -63.705589 -55.601418 78.369056 35.246002 -20.940878 -6.643461 3.403314 13.895520 15.664279 54.030023 -17.762921 15.386005 64.955539 70.928102 66.715683 -55.782827 -9.799350 -22.244717 
4.165507 -50.121632 13.819094 -173.415654 -10.033905 1.648606 5.307472 -3.587653 -28.561412 -11.259469 10.476895 44.114480 -0.576294 6.089078 6.627489 nan nan nan -3.415684 -0.726774 -4.007124 1.577426 -2.639656 2.069548 13.017182 -1.571435 16.462351 nan nan nan 2.442453 3.640765 39.607501 -3.004005 -6.380342 3.701580 -1.110249 -1.164142 9.380687 -15.658922 2.487153 50.177308 9.126520 5.875912 0.919194 -14.770747 -10.118698 23.095642 -37.529067 21.087813 20.143298 -64.348342 -55.883459 78.720231 34.991959 -21.102884 -6.920246 3.261687 14.178534 15.629455 53.500407 -17.628088 15.717525 65.932407 70.660553 67.128055 -55.008563 -9.768675 -23.071651 
4.170249 -50.124996 13.744823 -173.422259 -10.034206 1.563993 4.851337 -3.552180 -27.127466 -11.252556 9.638398 41.488498 -0.694662 6.444144 6.717909 nan nan nan -3.243449 -0.584401 -3.790279 1.365593 -2.577625 1.730172 13.428791 -1.561885 16.613417 nan nan nan 2.403544 3.592609 39.090254 -3.080921 -6.230194 3.733804 -1.093326 -1.089127 9.392712 -15.465130 2.531253 50.238092 9.157761 5.776417 0.780527 -14.592899 -10.160868 22.943421 -37.025707 21.041684 20.369716 -65.207343 -56.138623 79.409543 33.870549 -21.344774 -7.037792 3.167186 14.459832 15.610173 52.975245 -17.341865 15.989861 66.950168 70.138698 67.602623 -54.396097 -9.630363 -23.875821 
4.175199 -50.141010 13.668604 -173.476297 -10.025393 1.440186 4.388925 -3.430919 -25.731964 -11.072797 8.730153 39.068546 -0.951526 6.936814 6.738172 nan nan nan -3.063569 -0.557081 -3.602075 1.152028 -2.752761 1.587715 13.984648 -1.268449 16.674723 nan nan nan 2.444327 3.470486 38.682212 -3.248979 -6.073638 3.691252 -1.061333 -1.074778 9.423383 -15.153058 2.637185 50.287857 9.095206 5.541379 0.622715 -14.393825 -10.037139 22.702637 -36.340858 20.920418 20.402630 -66.395344 -55.975407 80.427033 32.927374 -21.722956 -7.158803 3.006347 14.750634 15.557861 52.554005 -16.556038 15.978592 67.810378 68.814004 67.519893 -56.182440 -9.356074 -25.527105 
4.166813 -50.137695 13.604212 -173.479333 -9.982316 1.334083 3.949789 -3.431811 -24.414628 -10.830351 8.126937 36.706285 -1.175147 7.339817 6.812562 nan nan nan -3.060513 -0.596155 -3.496495 1.209081 -2.843382 1.585694 14.263580 -1.171070 16.507506 nan nan nan 2.414069 3.527811 38.037103 -3.213636 -5.953102 4.107250 -0.973531 -1.040819 9.200068 -15.071595 2.517116 50.354847 9.013891 5.431338 0.501321 -14.506953 -10.150433 22.474860 -35.551381 20.983421 20.878939 -67.315187 -56.392488 80.906242 31.448759 -21.924150 -6.403722 3.125552 14.988146 15.360254 51.406699 -16.832245 16.337080 69.607088 68.941931 68.996735 -52.738257 -9.619165 -25.772523 
4.176635 -50.114231 13.536194 -173.510124 -9.941231 1.230355 3.496922 -3.240928 -23.217752 -10.383470 7.843844 34.651475 -1.528473 7.644685 6.868878 nan nan nan -3.023020 -0.689268 -3.420767 1.253379 -3.168087 1.622218 14.565648 -0.834796 16.447207 nan nan nan 2.398650 3.520872 37.496178 -3.237526 -5.824645 4.321092 -0.933325 -0.977945 8.998760 -14.717755 2.539659 50.446479 8.919502 5.233335 0.439098 -14.673117 -10.203342 22.348723 -34.641520 21.128907 21.335539 -67.900356 -56.971637 81.416757 30.183810 -22.319614 -5.527290 3.372372 15.244687 15.287436 50.356079 -16.757778 16.720963 71.095611 68.764541 69.718510 -51.395171 -10.409899 -27.326367 
4.161542 -50.095562 13.452495 -173.511062 -9.906835 1.114670 3.137742 -3.252930 -21.953288 -10.315759 6.946509 32.465759 -1.569282 7.803647 6.954256 nan nan nan -3.020532 -0.626270 -3.271854 1.323126 -3.213383 1.513630 14.651138 -0.809590 16.416505 nan nan nan 2.348331 3.470371 36.986492 -3.252279 -5.679319 4.518190 -0.879556 -0.924725 8.790905 -14.641605 2.504726 50.474790 8.812356 5.249625 0.485936 -14.832634 -10.279614 22.235476 -33.834445 21.084645 21.543397 -68.132692 -57.434085 81.425178 28.754457 -22.624803 -4.887367 3.488882 15.538841 15.244191 49.521052 -16.606257 17.124337 72.233833 68.841229 70.257796 -49.848982 -11.168752 -28.483649 
4.165210 -50.113640 13.368028 -173.643082 -9.857148 0.973119 2.707530 -2.929387 -20.693501 -9.836255 5.938371 30.521134 -2.107796 8.106026 7.051753 nan nan nan -2.775689 -0.580267 -3.147071 1.164126 -3.700791 1.615202 14.862208 -0.403758 16.220700 nan nan nan 2.473682 3.157844 36.896578 -3.582668 -5.353335 3.729787 -0.808435 -0.943962 9.096122 -13.890077 2.591566 50.550650 8.406215 4.795122 0.656634 -14.467329 -9.947172 22.359586 -33.080114 20.119793 21.010707 -69.086744 -56.533147 82.381572 29.305658 -23.844472 -6.718190 3.405968 15.653947 15.562358 49.750718 -13.984198 16.535622 71.807269 65.315991 66.669648 -62.230106 -11.698188 -33.185126 
4.151587 -50.104607 13.297369 -173.578297 -9.881325 0.799440 2.222613 -2.701228 -19.451274 -9.558682 5.068659 28.651560 -2.432343 8.366925 7.069629 nan nan nan -2.860308 -0.620033 -3.016571 1.258101 -3.534439 1.769245 14.616584 -0.504094 15.950593 nan nan nan 2.232317 3.234499 36.243928 -3.461394 -5.154218 4.393494 -0.733676 -0.901489 8.676530 -13.825085 2.618249 50.517125 8.393298 4.738799 0.531786 -14.536398 -10.017071 21.813698 -32.059811 19.964147 21.394724 -70.351210 -56.904788 82.797219 26.152209 -23.619601 -6.114906 3.589190 15.801568 15.620644 48.523323 -13.957412 17.216006 77.191710 66.562961 69.681158 -58.680038 -15.827624 -34.666684 
4.116652 -50.104843 13.224777 -173.534304 -9.970911 0.634700 1.813542 -2.531960 -18.210722 -9.325572 4.166670 26.797249 -2.434561 8.661054 7.240711 nan nan nan -2.911555 -0.571125 -2.844598 1.212792 -3.560044 1.886361 14.599708 -0.247506 15.906527 nan nan nan 2.136435 3.196626 35.726535 -3.527637 -5.024883 4.613786 -0.715054 -0.775853 8.512735 -13.710938 2.675981 50.583428 8.355833 4.801451 0.394565 -14.444683 -10.153802 21.588831 -31.604753 19.861010 21.403122 -70.254772 -57.457262 82.734489 25.895887 -23.350018 -6.171489 3.583596 16.214022 15.542145 48.197124 -13.510438 17.277499 76.829758 66.407430 68.947270 -57.795197 -16.696034 -35.418302 
